<?xml version="1.0" standalone="no"?>
<!DOCTYPE svg PUBLIC "-//W3C//DTD SVG 20010904//EN"
 "http://www.w3.org/TR/2001/REC-SVG-20010904/DTD/svg10.dtd">
<svg version="1.0" xmlns="http://www.w3.org/2000/svg"
 width="512.000000pt" height="512.000000pt" viewBox="0 0 512.000000 512.000000"
 preserveAspectRatio="xMidYMid meet">
<metadata>
Created by potrace 1.14, written by Peter Selinger 2001-2017
</metadata>
<g transform="translate(0.000000,512.000000) scale(0.100000,-0.100000)"
fill="#000000" stroke="none">
<path d="M2329 5106 c-2 -2 -29 -6 -59 -9 -61 -7 -113 -14 -150 -22 -14 -3
-38 -8 -55 -11 -109 -19 -331 -86 -465 -140 -51 -20 -254 -121 -315 -156 -47
-27 -258 -168 -265 -178 -3 -3 -15 -13 -28 -22 -59 -40 -265 -235 -343 -324
-88 -102 -269 -350 -269 -370 0 -3 -8 -18 -19 -32 -21 -31 -96 -175 -139 -273
-43 -94 -107 -288 -136 -409 -37 -160 -43 -191 -51 -273 -3 -34 -9 -75 -12
-92 -8 -48 -10 -390 -2 -453 4 -31 10 -84 14 -117 29 -263 124 -570 257 -830
56 -108 75 -143 109 -192 16 -23 29 -44 29 -47 0 -9 103 -148 172 -232 91
-113 260 -279 369 -365 24 -18 46 -36 49 -40 16 -21 270 -180 373 -234 228
-119 496 -211 727 -249 19 -4 53 -10 75 -14 22 -4 198 -7 390 -7 352 0 369 1
543 40 12 3 32 7 43 10 39 8 203 55 224 64 11 4 58 23 105 41 343 132 657 341
920 615 50 52 81 87 159 180 70 84 185 263 271 420 92 171 205 497 236 680 2
17 11 68 19 115 19 116 19 654 -1 760 -33 187 -42 225 -65 304 -143 488 -390
884 -764 1221 -74 66 -277 225 -289 225 -2 0 -31 17 -63 39 -263 175 -654 315
-1018 365 -88 12 -565 22 -576 12z"/>
</g>
</svg>
