<?xml version="1.0" standalone="no"?>
<!DOCTYPE svg PUBLIC "-//W3C//DTD SVG 20010904//EN"
 "http://www.w3.org/TR/2001/REC-SVG-20010904/DTD/svg10.dtd">
<svg version="1.0" xmlns="http://www.w3.org/2000/svg"
 width="128.000000pt" height="128.000000pt" viewBox="0 0 128.000000 128.000000"
 preserveAspectRatio="xMidYMid meet">
<metadata>
Created by potrace 1.14, written by Peter Selinger 2001-2017
</metadata>
<g transform="translate(0.000000,128.000000) scale(0.100000,-0.100000)"
fill="#000000" stroke="none">
<path d="M365 1104 c-19 -21 -28 -24 -38 -15 -20 16 -55 -22 -38 -43 9 -11 6
-17 -14 -30 -32 -21 -32 -41 0 -62 19 -12 23 -20 16 -33 -14 -24 15 -54 40
-40 16 8 21 5 31 -16 14 -32 41 -32 62 0 13 20 20 23 35 15 25 -13 45 11 37
43 -4 17 0 25 17 33 12 5 21 16 19 23 -1 7 11 0 27 -16 20 -19 26 -33 21 -43
-13 -22 17 -52 40 -40 14 8 22 4 34 -15 21 -32 39 -32 60 0 13 20 20 23 35 15
25 -13 45 11 37 44 -5 19 -1 25 18 30 18 4 22 11 19 31 -3 13 -13 27 -23 30
-13 4 -17 15 -16 38 1 28 -2 32 -26 32 -15 1 -37 11 -48 23 -22 23 -45 20 -60
-8 -6 -11 -17 -16 -33 -13 -30 6 -52 -19 -39 -43 14 -26 -29 -48 -63 -32 -19
9 -23 16 -19 38 6 30 -14 45 -47 35 -12 -4 -19 1 -24 14 -10 31 -34 33 -60 5z
m73 -98 c14 -32 -12 -75 -45 -76 -18 0 -53 37 -53 55 0 49 78 65 98 21z m265
25 c27 -11 41 -53 23 -75 -20 -26 -53 -29 -75 -7 -26 26 -26 46 -1 71 23 23
21 23 53 11z"/>
<path d="M32 1103 c3 -14 13 -18 46 -17 l42 0 0 -118 c0 -98 3 -118 15 -118
12 0 15 19 15 115 0 63 3 116 8 116 4 1 23 3 42 3 24 2 36 8 38 19 3 15 -8 17
-103 17 -96 0 -106 -2 -103 -17z"/>
<path d="M857 1113 c-4 -3 -7 -64 -7 -135 0 -95 3 -128 13 -129 23 -1 112 -1
135 0 12 1 22 7 22 16 0 11 -16 15 -67 17 l-68 3 -1 100 c-1 55 -2 108 -3 118
-1 17 -12 22 -24 10z"/>
<path d="M1087 1102 c-64 -40 -40 -102 51 -128 66 -19 82 -30 82 -54 0 -26
-23 -40 -66 -42 -31 -1 -42 4 -65 31 -34 41 -56 34 -33 -10 17 -34 71 -61 106
-55 13 3 28 5 34 5 25 2 54 43 54 76 0 40 -17 54 -98 80 -64 20 -82 47 -50 69
38 27 108 14 108 -19 0 -21 16 -27 30 -10 10 12 6 20 -18 45 -36 35 -90 40
-135 12z"/>
<path d="M590 770 c-57 -12 -91 -57 -95 -124 -5 -83 59 -150 133 -141 65 8
104 57 107 134 2 36 -25 104 -46 117 -20 12 -73 20 -99 14z m76 -38 c45 -36
57 -98 29 -152 -35 -68 -125 -68 -160 0 -18 35 -19 86 -2 120 24 48 94 64 133
32z"/>
<path d="M276 643 c0 -89 4 -128 12 -131 12 -4 13 5 14 81 l0 37 64 0 c34 0
65 4 69 9 6 12 -19 20 -60 19 -74 -1 -75 0 -75 35 0 50 8 55 83 52 51 -2 67 1
67 11 0 11 -21 14 -87 14 l-88 0 1 -127z"/>
<path d="M790 641 c0 -72 4 -132 9 -135 13 -8 18 12 17 67 l-1 47 45 0 c43 0
90 -21 90 -39 0 -23 32 -83 40 -75 13 13 -8 78 -32 104 -10 11 -14 20 -8 20
20 0 39 61 28 92 -14 39 -35 48 -117 48 l-71 0 0 -129z m157 83 c32 -44 2 -74
-76 -74 -56 0 -57 0 -55 28 1 15 3 37 3 48 1 20 6 21 58 19 41 -2 60 -7 70
-21z"/>
<path d="M170 297 l0 -134 63 2 c34 0 72 7 84 13 31 17 54 64 55 115 1 88 -53
137 -151 137 l-51 0 0 -133z m161 60 c33 -56 8 -149 -45 -163 -13 -3 -38 -4
-57 -2 l-34 3 0 100 0 100 30 5 c43 9 84 -8 106 -43z"/>
<path d="M428 423 c-2 -4 -3 -64 -3 -133 l1 -125 93 0 c67 0 96 4 98 13 4 9
-17 12 -82 12 l-86 0 3 48 3 47 78 3 c42 2 77 7 77 12 0 11 -8 12 -98 13 l-63
1 3 44 3 45 77 1 c43 1 79 5 80 11 3 12 -179 20 -184 8z"/>
<path d="M657 423 c-5 -8 79 -224 96 -251 13 -19 24 -14 35 16 6 15 28 73 50
129 24 61 36 105 30 109 -13 8 -12 10 -53 -101 -21 -55 -41 -104 -45 -108 -4
-5 -27 41 -51 102 -42 105 -52 121 -62 104z"/>
<path d="M946 409 c-50 -40 -27 -102 45 -115 39 -8 85 -29 94 -44 9 -15 -14
-50 -40 -60 -35 -13 -90 5 -103 35 -6 14 -16 25 -22 25 -18 0 -11 -28 14 -57
21 -25 31 -28 81 -28 48 0 60 4 76 24 10 13 19 36 19 52 0 34 -24 52 -97 74
-62 18 -79 36 -63 64 6 12 18 22 28 23 9 0 24 2 32 3 25 2 59 -17 65 -37 8
-24 25 -23 25 1 0 53 -103 80 -154 40z"/>
</g>
</svg>
